<svg width="47" height="48" viewBox="0 0 47 48" fill="none" xmlns="http://www.w3.org/2000/svg">
<path d="M45.9628 22.4652C45.9669 22.4652 45.97 22.4652 45.9741 22.4652C46.2603 22.4652 46.5332 22.3451 46.7271 22.1347C46.9241 21.9213 47.0216 21.6349 46.9959 21.3455C45.9659 10.0119 36.9957 1.03578 25.6648 0.0033074C25.3775 -0.0192715 25.0882 0.0741231 24.8748 0.272202C24.6614 0.469254 24.5424 0.747385 24.5455 1.03783C24.724 16.1 26.7103 22.2548 45.9628 22.4652ZM45.9628 24.5466C26.7103 24.757 24.725 30.9118 24.5465 45.9739C24.5434 46.2644 24.6624 46.5425 24.8758 46.7396C25.0667 46.9151 25.316 47.0126 25.5725 47.0126C25.6032 47.0126 25.635 47.0115 25.6658 47.0085C36.9967 45.976 45.9669 37.0009 46.9959 25.6663C47.0216 25.3769 46.9251 25.0905 46.7271 24.877C46.5291 24.6636 46.2531 24.5579 45.9628 24.5466ZM21.2664 0.00843909C9.97142 1.07067 1.03001 10.0448 0.00506071 21.3475C-0.0205888 21.637 0.0758534 21.9233 0.273867 22.1368C0.467777 22.3472 0.741714 22.4662 1.02694 22.4662C1.03104 22.4662 1.03514 22.4662 1.03925 22.4662C20.2281 22.2456 22.2093 16.0938 22.3899 1.04194C22.393 0.75149 22.2729 0.472333 22.0595 0.275281C21.8441 0.0782284 21.5558 -0.0182451 21.2664 0.00843909ZM1.03822 24.5455C0.719142 24.5096 0.468804 24.6615 0.272841 24.875C0.0758535 25.0885 -0.0216147 25.3748 0.00403481 25.6642C1.02899 36.967 9.97142 45.9411 21.2664 47.0033C21.2982 47.0064 21.3311 47.0074 21.3629 47.0074C21.6194 47.0074 21.8677 46.911 22.0585 46.7355C22.2719 46.5384 22.3919 46.2592 22.3888 45.9688C22.2083 30.9179 20.2281 24.7662 1.03822 24.5455Z" fill="white"/>
</svg>
