<svg width="16" height="16" viewBox="0 0 16 16" fill="none" xmlns="http://www.w3.org/2000/svg">
                                                <path d="M8.67591 1.4395L10.2549 4.78509C10.3647 5.01778 10.577 5.17901 10.8226 5.21627L14.3536 5.7528C14.9721 5.84685 15.2189 6.64141 14.7715 7.09732L12.2165 9.70149C12.039 9.88257 11.9578 10.1437 11.9998 10.3992L12.6029 14.0765C12.7086 14.7205 12.062 15.2115 11.5089 14.9077L8.35088 13.1717C8.13127 13.051 7.86873 13.051 7.64912 13.1717L4.49108 14.9077C3.93797 15.2118 3.2914 14.7205 3.39712 14.0765L4.00017 10.3992C4.04222 10.1437 3.96104 9.88257 3.78348 9.70149L1.22848 7.09732C0.781089 6.64111 1.02786 5.84654 1.64638 5.7528L5.17735 5.21627C5.42295 5.17901 5.63526 5.01778 5.74507 4.78509L7.32409 1.4395C7.60035 0.853501 8.39936 0.853501 8.67591 1.4395Z" fill="#FF9900"></path>
                                            </svg>