<svg width="51" height="49" viewBox="0 0 51 49" fill="none" xmlns="http://www.w3.org/2000/svg">
<path fill-rule="evenodd" clip-rule="evenodd" d="M11 1C5.47715 1 1 5.47715 1 11V38.0126C1 43.5354 5.47715 48.0126 11 48.0126H40C45.5228 48.0126 50 43.5354 50 38.0126V11C50 5.47715 45.5228 1 40 1H11ZM42.4415 11.4027L36.6845 37.9711C36.5489 38.5984 35.7822 38.8826 35.2413 38.5055L27.3825 33.0313C26.9054 32.6989 26.2548 32.7165 25.7981 33.0738L21.4409 36.4816C20.9352 36.8783 20.1732 36.6572 19.9796 36.0597L18.4692 31.3992C17.5137 28.4509 15.2452 26.1123 12.3274 25.0675L9.13745 23.9253C8.34343 23.6399 8.33665 22.5644 9.1284 22.2718L41.208 10.3983C41.8881 10.146 42.5897 10.7175 42.4415 11.4027Z" fill="white" stroke="white" stroke-width="0.43956"/>
<path fill-rule="evenodd" clip-rule="evenodd" d="M34.7688 16.2074L19.4922 25.2345C18.9067 25.5812 18.6311 26.2596 18.82 26.8947L20.4716 32.463C20.5891 32.8575 21.1858 32.8172 21.2429 32.4096L21.6722 29.356C21.7533 28.7811 22.039 28.2512 22.4823 27.8555L35.0897 16.6116C35.3258 16.4018 35.0432 16.0457 34.7688 16.2074Z" fill="white" stroke="white" stroke-width="0.43956"/>
</svg>
